<svg version="1.1" xmlns="http://www.w3.org/2000/svg" viewBox="-51.000001 -10.623868108606954 102.000002 20.648864835516658" fill="none" stroke="black" stroke-width="0.6%" vector-effect="non-scaling-stroke">
    <path d="M -35.35534 -7.96917 A 50 5.64948 360 0 1 50 -3.97438 A 50 5.64948 360 0 1 -50 -3.97438 A 50 5.64948 360 0 1 -35.35534 -7.96917 Z" />
    <path d="M -50 1.98719 A 50 5.64948 180 0 0 50 1.98719" />
    <path d="M -1.41421 0.65957 A 2 0.22598 360 0 1 2 0.81936 A 2 0.22598 360 0 1 -2 0.81936 A 2 0.22598 360 0 1 -1.41421 0.65957 Z" />
    <path d="M -43.84062 -4.13418 A 2 0.22598 360 0 1 -40.42641 -3.97438 A 2 0.22598 360 0 1 -44.42641 -3.97438 A 2 0.22598 360 0 1 -43.84062 -4.13418 Z" />
    <path d="M 41.01219 -4.13418 A 2 0.22598 360 0 1 44.42641 -3.97438 A 2 0.22598 360 0 1 40.42641 -3.97438 A 2 0.22598 360 0 1 41.01219 -4.13418 Z" />
    <path d="M 4 -3.97438 A 4 0.45196 360 0 1 -4 -3.97438" />
    <path d="M -1.41421 -8.92792 A 2 0.22598 360 0 1 2 -8.76813 A 2 0.22598 360 0 1 -2 -8.76813 A 2 0.22598 360 0 1 -1.41421 -8.92792 Z" />
    <path d="M -2.82843 -8.26835 A 4 0.45196 360 0 1 4 -7.94877 L 4 -3.97438" />
    <path d="M 4 -7.94877 A 4 0.45196 360 0 1 -4 -7.94877 L -4 -3.97438" />
    <path d="M -4 -7.94877 A 4 0.45196 360 0 1 -2.82843 -8.26835" />
    <path d="M -9.525 7.94877 A 9.525 1.07623 180 0 0 9.525 7.94877 L 9.525 7.53322" />
    <path d="M -50 -3.97438 L -50 1.98719" />
    <path d="M 50 -3.97438 L 50 1.98719" />
    <path d="M -9.525 7.94877 L -9.525 7.53322" />
</svg>